<?xml version="1.0" standalone="no"?>
<!DOCTYPE svg PUBLIC "-//W3C//DTD SVG 20010904//EN"
 "http://www.w3.org/TR/2001/REC-SVG-20010904/DTD/svg10.dtd">
<svg version="1.0" xmlns="http://www.w3.org/2000/svg"
 width="16.000000pt" height="16.000000pt" viewBox="0 0 16.000000 16.000000"
 preserveAspectRatio="xMidYMid meet">
<metadata>
Created by potrace 1.11, written by Peter Selinger 2001-2013
</metadata>
<g transform="translate(0.000000,16.000000) scale(0.007692,-0.007692)"
fill="#000000" stroke="none">
<path d="M214 2069 c-86 -25 -181 -122 -204 -209 -7 -26 -10 -310 -8 -842 l3
-803 30 -54 c37 -66 92 -115 162 -141 52 -19 77 -20 843 -20 782 0 790 0 847
21 76 29 143 96 172 172 21 57 21 65 21 847 0 766 -1 791 -20 843 -26 70 -75
125 -141 162 l-54 30 -810 2 c-470 1 -823 -2 -841 -8z m306 -334 l0 -255 -85
0 -85 0 0 255 0 255 85 0 85 0 0 -255z m1345 236 c22 -10 52 -31 67 -47 51
-55 58 -88 58 -274 l0 -170 -332 0 -331 0 -61 29 c-146 68 -307 69 -452 0 -50
-24 -75 -29 -133 -29 l-71 0 0 255 0 255 608 0 c569 0 609 -2 647 -19z m-1605
-241 l0 -250 -85 0 -85 0 0 170 c0 182 7 219 53 269 29 31 77 61 100 61 16 0
17 -19 17 -250z m930 -285 c112 -45 192 -123 248 -242 24 -52 27 -70 27 -163
0 -100 -2 -109 -36 -180 -46 -98 -111 -163 -209 -209 -71 -34 -80 -36 -181
-36 -101 0 -108 1 -182 38 -98 49 -160 111 -206 207 -34 71 -36 80 -36 180 0
100 2 108 36 180 21 43 56 95 82 121 49 49 141 103 203 119 57 14 201 5 254
-15z m-578 -107 c-144 -211 -119 -484 62 -663 211 -209 521 -209 732 0 181
179 206 452 62 663 l-29 42 276 0 275 0 0 -560 c0 -612 1 -601 -58 -664 -15
-16 -45 -37 -67 -47 -38 -18 -82 -19 -823 -19 -856 0 -821 -2 -886 58 -16 15
-37 45 -47 67 -17 37 -19 76 -19 603 l0 562 275 0 276 0 -29 -42z"/>
<path d="M1486 1894 c-13 -13 -16 -41 -16 -155 0 -78 5 -149 10 -160 10 -17
23 -19 163 -19 106 0 157 4 165 12 8 8 12 59 12 165 0 140 -2 153 -19 163 -11
5 -82 10 -160 10 -114 0 -142 -3 -155 -16z m244 -159 l0 -85 -85 0 -85 0 0 85
0 85 85 0 85 0 0 -85z"/>
<path d="M925 1296 c-104 -48 -165 -143 -165 -256 0 -253 308 -376 482 -194
136 142 89 371 -92 453 -64 29 -159 28 -225 -3z m192 -81 c50 -21 72 -42 94
-90 33 -73 16 -180 -37 -227 -53 -46 -145 -61 -211 -33 -50 21 -72 42 -94 90
-32 69 -19 164 29 219 45 51 149 70 219 41z"/>
</g>
</svg>
